<svg width="22" height="23" viewBox="0 0 22 23" fill="none" xmlns="http://www.w3.org/2000/svg">
<g filter="url(#filter0_d_118_2)">
<path d="M15.79 10.165C15.87 9.22001 15.625 8.30501 16.295 7.63501L16.71 7.22001C17.2767 6.65198 17.5949 5.88237 17.5949 5.08001C17.5949 4.27764 17.2767 3.50804 16.71 2.94001L15.78 2.01001L15.11 2.68001C14.365 2.70001 13.625 2.99501 13.055 3.56501L12.95 3.66501C12.2811 4.33376 11.3974 4.74461 10.455 4.82501C9.205 4.93001 8.035 5.47501 7.145 6.36501C6.43992 7.0689 5.95125 7.96005 5.73681 8.93299C5.52237 9.90593 5.59115 10.9199 5.935 11.855L5.595 12.195L6.87 13.47C7.35481 13.9551 7.93044 14.3399 8.56402 14.6024C9.19759 14.865 9.87668 15.0001 10.5625 15.0001C11.2483 15.0001 11.9274 14.865 12.561 14.6024C13.1946 14.3399 13.7702 13.9551 14.255 13.47C15.14 12.585 15.685 11.415 15.79 10.165Z" fill="#44911B"/>
<path d="M13.33 1C12.41 1 11.54 1.36 10.89 2.01L10.8 2.105C10.325 2.58 9.69 2.875 9.015 2.935C7.72 3.045 6.505 3.61 5.59 4.525C5.0848 5.02753 4.68418 5.62517 4.41127 6.28341C4.13836 6.94164 3.99858 7.64743 4 8.36C4 9.81 4.565 11.17 5.59 12.195C6.615 13.22 7.975 13.785 9.425 13.785C10.875 13.785 12.235 13.22 13.26 12.195C14.175 11.28 14.745 10.06 14.855 8.77C14.9109 8.09531 15.2051 7.46254 15.685 6.985L15.78 6.89C16.101 6.57004 16.3555 6.18971 16.5289 5.77094C16.7022 5.35217 16.791 4.90323 16.79 4.45C16.79 3.53 16.43 2.66 15.78 2.01C15.1293 1.36215 14.2482 0.998906 13.33 1Z" fill="#008463"/>
<path d="M15.16 6.46498L15.255 6.36998C15.764 5.86067 16.05 5.17006 16.05 4.44998C16.05 3.7299 15.764 3.03929 15.255 2.52998C14.7457 2.02094 14.0551 1.73499 13.335 1.73499C12.6149 1.73499 11.9243 2.02094 11.415 2.52998L11.32 2.62498C10.7197 3.22554 9.92613 3.594 9.08 3.66498C7.95805 3.75964 6.90586 4.24853 6.11 5.04498C5.67487 5.47991 5.32969 5.99631 5.09419 6.56468C4.85868 7.13305 4.73747 7.74225 4.73747 8.35748C4.73747 8.97271 4.85868 9.58191 5.09419 10.1503C5.32969 10.7186 5.67487 11.235 6.11 11.67C6.54493 12.1051 7.06133 12.4503 7.6297 12.6858C8.19807 12.9213 8.80727 13.0425 9.4225 13.0425C10.0377 13.0425 10.6469 12.9213 11.2153 12.6858C11.7837 12.4503 12.3001 12.1051 12.735 11.67C13.5314 10.8741 14.0203 9.82193 14.115 8.69998C14.19 7.85998 14.56 7.06498 15.16 6.46498Z" fill="#C3EF3C"/>
<path d="M9.645 10.345C10.2232 10.345 10.7777 10.1153 11.1865 9.70648C11.5953 9.29765 11.825 8.74316 11.825 8.16499C11.825 7.58681 11.5953 7.03232 11.1865 6.62349C10.7777 6.21466 10.2232 5.98499 9.645 5.98499C9.06683 5.98499 8.51234 6.21466 8.10351 6.62349C7.69468 7.03232 7.465 7.58681 7.465 8.16499C7.465 8.74316 7.69468 9.29765 8.10351 9.70648C8.51234 10.1153 9.06683 10.345 9.645 10.345Z" fill="#6D4534"/>
</g>
<defs>
<filter id="filter0_d_118_2" x="-1" y="0" width="24" height="24" filterUnits="userSpaceOnUse" color-interpolation-filters="sRGB">
<feFlood flood-opacity="0" result="BackgroundImageFix"/>
<feColorMatrix in="SourceAlpha" type="matrix" values="0 0 0 0 0 0 0 0 0 0 0 0 0 0 0 0 0 0 127 0" result="hardAlpha"/>
<feOffset dy="4"/>
<feGaussianBlur stdDeviation="2"/>
<feComposite in2="hardAlpha" operator="out"/>
<feColorMatrix type="matrix" values="0 0 0 0 0 0 0 0 0 0 0 0 0 0 0 0 0 0 0.25 0"/>
<feBlend mode="normal" in2="BackgroundImageFix" result="effect1_dropShadow_118_2"/>
<feBlend mode="normal" in="SourceGraphic" in2="effect1_dropShadow_118_2" result="shape"/>
</filter>
</defs>
</svg>
