<svg width="48" height="48" viewBox="0 0 48 48" fill="none" xmlns="http://www.w3.org/2000/svg">
<path d="M41.6272 31.4227C41.9097 28.1827 41.0447 25.0456 43.4103 22.7485L44.8755 21.3256C46.8763 19.3781 48 16.7395 48 13.9885C48 11.2376 46.8763 8.59895 44.8755 6.65144L41.5919 3.46289L39.2264 5.76002C36.596 5.82859 33.9832 6.84001 31.9707 8.79428L31.6 9.13714C29.2384 11.43 26.1183 12.8386 22.7908 13.1142C18.3774 13.4742 14.2465 15.3428 11.1042 18.3942C8.61472 20.8075 6.88935 23.8629 6.13223 27.1986C5.37511 30.5344 5.61794 34.011 6.83198 37.2169L5.63154 38.3826L10.1332 42.754C11.8449 44.4172 13.8773 45.7365 16.1143 46.6366C18.3513 47.5367 20.749 48.0001 23.1704 48.0001C25.5918 48.0001 27.9895 47.5367 30.2265 46.6366C32.4635 45.7365 34.4959 44.4172 36.2076 42.754C39.3323 39.7198 41.2565 35.7084 41.6272 31.4227Z" fill="#44911B"/>
<path d="M32.9417 8.47889e-06C29.6934 8.47889e-06 26.6217 1.23429 24.3267 3.46284L24.009 3.78855C22.3319 5.41711 20.0899 6.42853 17.7066 6.63425C13.1343 7.01139 8.8445 8.94852 5.61389 12.0856C3.83017 13.8086 2.41567 15.8576 1.45211 18.1144C0.488552 20.3712 -0.00497542 22.791 3.78128e-05 25.2341C3.78128e-05 30.2055 1.9949 34.8683 5.61389 38.3826C9.23288 41.8969 14.0347 43.834 19.1542 43.834C24.2738 43.834 29.0755 41.8969 32.6945 38.3826C35.9251 35.2455 37.9377 31.0626 38.326 26.6398C38.5233 24.3266 39.5622 22.1571 41.2565 20.5199L41.592 20.1941C42.7253 19.0971 43.6239 17.7932 44.2359 16.3574C44.848 14.9216 45.1613 13.3824 45.158 11.8285C45.158 8.67423 43.8869 5.6914 41.592 3.46284C39.2946 1.24164 36.1836 -0.00374921 32.9417 8.47889e-06Z" fill="#008463"/>
<path d="M39.4029 18.737L39.7383 18.4113C41.5356 16.6651 42.5452 14.2973 42.5452 11.8285C42.5452 9.35967 41.5356 6.99189 39.7383 5.2457C37.9401 3.50043 35.5017 2.52002 32.9593 2.52002C30.4169 2.52002 27.9785 3.50043 26.1803 5.2457L25.8449 5.57141C23.7256 7.63045 20.9235 8.89375 17.9361 9.1371C13.9748 9.46164 10.2598 11.1378 7.44986 13.8685C5.91353 15.3597 4.6948 17.1302 3.8633 19.0789C3.03181 21.0275 2.60384 23.1162 2.60384 25.2256C2.60384 27.3349 3.03181 29.4236 3.8633 31.3722C4.6948 33.3209 5.91353 35.0914 7.44986 36.5826C8.98548 38.0745 10.8087 39.2579 12.8155 40.0654C14.8222 40.8728 16.9732 41.2884 19.1454 41.2884C21.3176 41.2884 23.4685 40.8728 25.4752 40.0654C27.482 39.2579 29.3052 38.0745 30.8409 36.5826C33.6529 33.854 35.379 30.2465 35.7133 26.3998C35.9781 23.5199 37.2844 20.7942 39.4029 18.737Z" fill="#C3EF3C"/>
<path d="M19.931 32.0398C21.9723 32.0398 23.9301 31.2523 25.3735 29.8506C26.817 28.4489 27.6279 26.5478 27.6279 24.5655C27.6279 22.5833 26.817 20.6821 25.3735 19.2805C23.9301 17.8788 21.9723 17.0913 19.931 17.0913C17.8896 17.0913 15.9318 17.8788 14.4884 19.2805C13.0449 20.6821 12.234 22.5833 12.234 24.5655C12.234 26.5478 13.0449 28.4489 14.4884 29.8506C15.9318 31.2523 17.8896 32.0398 19.931 32.0398Z" fill="#6D4534"/>
</svg>
