<svg width="128" height="128" viewBox="0 0 128 128" fill="none" xmlns="http://www.w3.org/2000/svg">
<path d="M111.006 83.7937C111.759 75.1537 109.452 66.7881 115.761 60.6624L119.668 56.8681C125.004 51.6748 128 44.6384 128 37.3026C128 29.9667 125.004 22.9304 119.668 17.737L110.912 9.23419L104.604 15.3599C97.5892 15.5427 90.6219 18.2398 85.2552 23.4512L84.2666 24.3655C77.969 30.4797 69.6487 34.2361 60.7756 34.9711C49.0065 35.9311 37.9907 40.914 29.6111 49.051C22.9726 55.4866 18.3716 63.6341 16.3526 72.5295C14.3336 81.4249 14.9812 90.6958 18.2186 99.245L15.0174 102.354L27.0219 114.011C31.5865 118.446 37.0062 121.964 42.9715 124.364C48.9367 126.764 55.3306 128 61.7877 128C68.2448 128 74.6387 126.764 80.604 124.364C86.5692 121.964 91.989 118.446 96.5535 114.011C104.886 105.919 110.017 95.2221 111.006 83.7937Z" fill="#44911B"/>
<path d="M87.8445 2.26104e-05C79.1824 2.26104e-05 70.9912 3.29143 64.8712 9.23424L64.0239 10.1028C59.5516 14.4456 53.5729 17.1428 47.2176 17.6913C35.0249 18.697 23.5853 23.8627 14.9704 32.2284C10.2138 36.8228 6.44179 42.2869 3.8723 48.3051C1.30281 54.3232 -0.0132678 60.7761 0.000100834 67.291C0.000100834 80.548 5.31972 92.9822 14.9704 102.354C24.621 111.725 37.4258 116.891 51.0779 116.891C64.73 116.891 77.5348 111.725 87.1854 102.354C95.8004 93.9879 101.167 82.8337 102.203 71.0395C102.729 64.8709 105.499 59.0856 110.017 54.7196L110.912 53.8511C113.934 50.9257 116.33 47.4484 117.962 43.6197C119.595 39.791 120.43 35.6864 120.421 31.5427C120.421 23.1313 117.032 15.1771 110.912 9.23424C104.786 3.31103 96.4896 -0.0099979 87.8445 2.26104e-05Z" fill="#008463"/>
<path d="M105.074 49.9654L105.969 49.0968C110.761 44.4403 113.454 38.1262 113.454 31.5427C113.454 24.9591 110.761 18.645 105.969 13.9885C101.173 9.33445 94.6712 6.72003 87.8915 6.72003C81.1117 6.72003 74.6094 9.33445 69.8142 13.9885L68.9197 14.8571C63.2682 20.3478 55.7961 23.7167 47.8296 24.3656C37.2661 25.231 27.3595 29.7009 19.8663 36.9826C15.7694 40.9591 12.5195 45.6805 10.3021 50.877C8.08482 56.0734 6.94356 61.6432 6.94356 67.2681C6.94356 72.893 8.08482 78.4628 10.3021 83.6593C12.5195 88.8558 15.7694 93.5771 19.8663 97.5536C23.9613 101.532 28.8233 104.688 34.1747 106.841C39.526 108.994 45.2618 110.102 51.0543 110.102C56.8468 110.102 62.5826 108.994 67.9339 106.841C73.2853 104.688 78.1473 101.532 82.2423 97.5536C89.7411 90.2772 94.3441 80.6573 95.2353 70.3995C95.9415 62.7196 99.4251 55.4511 105.074 49.9654Z" fill="#C3EF3C"/>
<path d="M53.1492 85.4395C58.5928 85.4395 63.8135 83.3396 67.6628 79.6017C71.512 75.8639 73.6745 70.7943 73.6745 65.5082C73.6745 60.2221 71.512 55.1525 67.6628 51.4146C63.8135 47.6768 58.5928 45.5769 53.1492 45.5769C47.7056 45.5769 42.4849 47.6768 38.6357 51.4146C34.7864 55.1525 32.624 60.2221 32.624 65.5082C32.624 70.7943 34.7864 75.8639 38.6357 79.6017C42.4849 83.3396 47.7056 85.4395 53.1492 85.4395Z" fill="#6D4534"/>
</svg>
